<svg id="chickLoop_sleep_uninterupted_borg" image-rendering="auto" baseProfile="basic" version="1.1" x="0" y="0" width="400" height="400" xmlns="http://www.w3.org/2000/svg" xmlns:xlink="http://www.w3.org/1999/xlink"><defs><filter id="filter1" filterUnits="objectBoundingBox" width="100%" height="100%" x="0%" y="0%"><feColorMatrix in="SourceGraphic" result="colorTrans" values="1 0 0 0 0 0 1 0 0 0 0 0 1 0 0 0 0 0 0 0"/></filter><path fill-opacity=".298" d="M26.3.25Q24.9 0 22.35 0l-6.7.05q-2.15.1-6.5.1-1.7 0-3.35.1Q4.05.4 2.35.4L1.9.35q-.25-.1-.6-.1-.55 0-.9.4L.15.9v.45q-.05.25-.05 1Q.05 2.7.05 3.4 0 3.75 0 4.15q0 1.35.1 2.1.15 1.75.4 2.4Q1 9.7 1.75 9.7l8.8.2q.2 0 .2.15 0 .3-.45.9-.2.35-1.1 1.45-.25.3-1.3 1.5-1 1.2-2.15 2.25-1.9 2.15-5 5.05v8.5q0 .4.45.8.35.35.8.35l3.7.05q1.05.05 3.1.05 2.2.05 6.85.05h8.05q1.35 0 1.9-.15.6-.05 1-.2.35-.25.35-.55v-7.55q0-.35-.4-.6-.35-.35-.75-.35h-5.35q-.95.05-3 .05 6.05-6.3 8.05-9.45 1-1.45 1.4-2.4.3-1.05.3-1.5V.95q0-.05-.1-.3-.2-.15-.8-.4m33.15.4q-.2-.15-.8-.4Q57.25 0 54.7 0L48 .05q-2.15.1-6.5.1-1.7 0-3.35.1Q36.4.4 34.7.4l-.45-.05q-.25-.1-.6-.1-.55 0-.9.4L32.5.9v.45q-.05.25-.05 1-.05.35-.05 1.05-.05.35-.05.75 0 1.35.1 2.1.15 1.75.4 2.4.5 1.05 1.25 1.05l8.8.2q.2 0 .2.15 0 .3-.45.9-.2.35-1.1 1.45-.25.3-1.3 1.5-1 1.2-2.15 2.25-1.9 2.15-5 5.05v8.5q0 .4.45.8.35.35.8.35l3.7.05q1.05.05 3.1.05 2.2.05 6.85.05h8.05q1.35 0 1.9-.15.6-.05 1-.2.35-.25.35-.55v-7.55q0-.35-.4-.6-.35-.35-.75-.35H52.8q-.95.05-3 .05 6.05-6.3 8.05-9.45 1-1.45 1.4-2.4.3-1.05.3-1.5V.95q0-.05-.1-.3m32.45.3q0-.05-.1-.3-.2-.15-.8-.4Q89.6 0 87.05 0l-6.7.05q-2.15.1-6.5.1-1.7 0-3.35.1-1.75.15-3.45.15L66.6.35q-.25-.1-.6-.1-.55 0-.9.4l-.25.25v.45q-.05.25-.05 1-.05.35-.05 1.05-.05.35-.05.75 0 1.35.1 2.1.15 1.75.4 2.4.5 1.05 1.25 1.05l8.8.2q.2 0 .2.15 0 .3-.45.9-.2.35-1.1 1.45-.25.3-1.3 1.5-1 1.2-2.15 2.25-1.9 2.15-5 5.05v8.5q0 .4.45.8.35.35.8.35l3.7.05q1.05.05 3.1.05 2.2.05 6.85.05h8.05q1.35 0 1.9-.15.6-.05 1-.2.35-.25.35-.55v-7.55q0-.35-.4-.6-.35-.35-.75-.35h-5.35q-.95.05-3 .05 6.05-6.3 8.05-9.45 1-1.45 1.4-2.4.3-1.05.3-1.5V.95Z" id="zzz"/></defs><g id="Scene-1"><g id="chick_shadow" transform="matrix(.901 0 0 .947 134 284.3)"><animateTransform attributeName="transform" additive="replace" type="translate" repeatCount="indefinite" dur="1.583s" keyTimes="0;.02599;.026;.05299;.053;.07899;.079;.10499;.105;.13199;.132;.15799;.158;.18399;.184;.21099;.211;.23699;.237;.26299;.263;.28999;.29;.31599;.316;.34199;.342;.36799;.368;.39499;.395;.42099;.421;.44699;.447;.47399;.474;.49999;.5;.52599;.526;.55299;.553;.57899;.579;.60499;.605;.63199;.632;.65799;.658;.68399;.684;.71099;.711;.73699;.737;.76299;.763;.78999;.79;.81599;.816;.84199;.842;.86899;.869;.89499;.895;.92099;.921;.94799;.948;.97399;.974;1" values="191.138,298.127;191.138,298.127;191.141,298.153;191.141,298.153;191.093,298.176;191.093,298.176;191.146,298.153;191.146,298.153;191.144,298.085;191.144,298.085;191.106,298.109;191.106,298.109;191.149,298.132;191.149,298.132;191.112,298.061;191.112,298.061;191.109,298.135;191.109,298.135;191.111,298.111;191.111,298.111;191.114,298.044;191.114,298.044;191.13,298.067;191.13,298.067;191.12,298.043;191.12,298.043;191.123,298.07;191.123,298.07;191.126,298.092;191.126,298.092;191.129,298.119;191.129,298.119;191.131,298.099;191.131,298.099;191.134,298.121;191.134,298.121;191.131,298.052;191.131,298.052;191.14,297.982;191.14,297.982;191.093,298.05;191.093,298.05;191.101,298.027;191.101,298.027;191.141,298.103;191.141,298.103;191.15,298.034;191.15,298.034;191.145,298.056;191.145,298.056;191.114,297.996;191.114,297.996;191.115,298.045;191.115,298.045;191.117,298.043;191.117,298.043;191.12,298.138;191.12,298.138;191.122,298.087;191.122,298.087;191.168,298.04;191.168,298.04;191.171,298.085;191.171,298.085;191.174,298.084;191.174,298.084;191.127,298.083;191.127,298.083;191.084,298.132;191.084,298.132;191.131,298.131;191.131,298.131;191.14,298.13;191.14,298.13;191.138,298.127;191.138,298.127" calcMode="discrete"/><animateTransform attributeName="transform" additive="sum" type="scale" repeatCount="indefinite" dur="1.583s" keyTimes="0;.02599;.026;.05299;.053;.07899;.079;.10499;.105;.13199;.132;.15799;.158;.18399;.184;.21099;.211;.23699;.237;.26299;.263;.28999;.29;.31599;.316;.34199;.342;.36799;.368;.39499;.395;.42099;.421;.44699;.447;.47399;.474;.49999;.5;.52599;.526;.55299;.553;.57899;.579;.60499;.605;.63199;.632;.65799;.658;.68399;.684;.71099;.711;.73699;.737;.76299;.763;.78999;.79;.81599;.816;.84199;.842;.86899;.869;.89499;.895;.92099;.921;.94799;.948;.97399;.974;1" values=".901,.947;.901,.947;.899,.946;.899,.946;.898,.944;.898,.944;.896,.942;.896,.942;.894,.941;.894,.941;.893,.939;.893,.939;.891,.938;.891,.938;.89,.936;.89,.936;.888,.934;.888,.934;.887,.933;.887,.933;.885,.931;.885,.931;.884,.929;.884,.929;.882,.928;.882,.928;.881,.926;.881,.926;.879,.925;.879,.925;.878,.923;.878,.923;.876,.921;.876,.921;.875,.92;.875,.92;.873,.918;.873,.918;.871,.917;.871,.917;.87,.915;.87,.915;.868,.913;.868,.913;.867,.912;.867,.912;.865,.91;.865,.91;.864,.909;.864,.909;.862,.907;.862,.907;.865,.91;.865,.91;.869,.914;.869,.914;.872,.917;.872,.917;.875,.92;.875,.92;.878,.924;.878,.924;.881,.927;.881,.927;.885,.93;.885,.93;.888,.934;.888,.934;.891,.937;.891,.937;.894,.94;.894,.94;.897,.944;.897,.944;.901,.947;.901,.947" calcMode="discrete"/><animateTransform attributeName="transform" additive="sum" type="translate" repeatCount="indefinite" dur="1.583s" keyTimes="0;.05299;.053;.10499;.105;.13199;.132;.15799;.158;.18399;.184;.21099;.211;.26299;.263;.28999;.29;.31599;.316;.36799;.368;.42099;.421;.44699;.447;.47399;.474;.49999;.5;.52599;.526;.55299;.553;.57899;.579;.60499;.605;.63199;.632;.65799;.658;.73699;.737;.78999;.79;.81599;.816;.89499;.895;.92099;.921;.94799;.948;.97399;.974;1" values="-63.5,-14.65;-63.5,-14.65;-63.5,-14.7;-63.5,-14.7;-63.55,-14.6;-63.55,-14.6;-63.45,-14.65;-63.45,-14.65;-63.55,-14.7;-63.55,-14.7;-63.45,-14.65;-63.45,-14.65;-63.5,-14.7;-63.5,-14.7;-63.5,-14.6;-63.5,-14.6;-63.4,-14.65;-63.4,-14.65;-63.5,-14.65;-63.5,-14.65;-63.5,-14.7;-63.5,-14.7;-63.5,-14.65;-63.5,-14.65;-63.5,-14.7;-63.5,-14.7;-63.55,-14.65;-63.55,-14.65;-63.5,-14.6;-63.5,-14.6;-63.5,-14.7;-63.5,-14.7;-63.45,-14.7;-63.45,-14.7;-63.55,-14.7;-63.55,-14.7;-63.5,-14.65;-63.5,-14.65;-63.55,-14.7;-63.55,-14.7;-63.45,-14.55;-63.45,-14.55;-63.45,-14.6;-63.45,-14.6;-63.5,-14.55;-63.5,-14.55;-63.5,-14.6;-63.5,-14.6;-63.45,-14.6;-63.45,-14.6;-63.5,-14.6;-63.5,-14.6;-63.45,-14.6;-63.45,-14.6;-63.5,-14.65;-63.5,-14.65" calcMode="discrete"/><path fill-opacity=".298" d="M126.4 14.4q0-5.95-18.5-10.2Q89.4 0 63.2 0 37 0 18.5 4.2 0 8.45 0 14.4q0 5.95 18.5 10.15Q37 28.8 63.2 28.8q26.2 0 44.7-4.25 18.5-4.2 18.5-10.15Z"/></g><g id="chick_Legs" transform="matrix(-.298 0 0 .298 200.6 268.95)" stroke="#EE9300" stroke-width="17" stroke-linejoin="round" stroke-linecap="round" fill="none"><path id="Layer2_0_1_STROKES" d="M38.4 120.75 83.95 0"/><path id="Layer3_0_1_STROKES" d="m5.05 67.85 46.3 15.25"/><path id="Layer4_0_1_STROKES" d="m0 100 50.6-15.85"/><path id="Layer5_0_1_STROKES" d="M-37.8 108.3 7.75-12.45"/><path id="Layer6_0_1_STROKES" d="m-71.15 55.35 46.3 15.25"/><path id="Layer7_0_1_STROKES" d="m-76.2 87.5 50.6-15.85"/></g><g id="chick_all" transform="matrix(-.349 0 0 .349 281.25 105.05)"><animateTransform attributeName="transform" additive="replace" type="translate" repeatCount="indefinite" dur="1.583s" keyTimes="0;.02599;.026;.05299;.053;.07899;.079;.10499;.105;.13199;.132;.15799;.158;.18399;.184;.21099;.211;.23699;.237;.26299;.263;.28999;.29;.31599;.316;.34199;.342;.36799;.368;.39499;.395;.42099;.421;.44699;.447;.47399;.474;.49999;.5;.68399;.684;.71099;.711;.73699;.737;.76299;.763;.78999;.79;.81599;.816;.84199;.842;.86899;.869;.89499;.895;.92099;.921;.94799;.948;.97399;.974;1" values="186.609,211.303;186.609,211.303;186.712,211.15;186.712,211.15;186.865,210.901;186.865,210.901;186.849,210.65;186.849,210.65;186.97,210.466;186.97,210.466;187.009,210.216;187.009,210.216;187.047,209.975;187.047,209.975;187.155,209.805;187.155,209.805;187.213,209.51;187.213,209.51;187.301,209.315;187.301,209.315;187.356,209.11;187.356,209.11;187.41,208.944;187.41,208.944;187.451,208.668;187.451,208.668;187.578,208.457;187.578,208.457;187.566,208.205;187.566,208.205;187.71,208.071;187.71,208.071;187.752,207.765;187.752,207.765;187.809,207.548;187.809,207.548;187.976,207.309;187.976,207.309;187.916,207.062;187.916,207.062;187.854,207.462;187.854,207.462;187.765,207.759;187.765,207.759;187.645,208.143;187.645,208.143;187.509,208.501;187.509,208.501;187.396,208.86;187.396,208.86;187.354,209.267;187.354,209.267;187.195,209.553;187.195,209.553;187.102,209.898;187.102,209.898;187.014,210.315;187.014,210.315;186.896,210.705;186.896,210.705;186.824,211.054;186.824,211.054;186.609,211.303;186.609,211.303" calcMode="discrete"/><animateTransform attributeName="transform" additive="sum" type="rotate" repeatCount="indefinite" dur="1.583s" keyTimes="0;.02599;.026;.05299;.053;.07899;.079;.10499;.105;.13199;.132;.15799;.158;.18399;.184;.21099;.211;.23699;.237;.26299;.263;.28999;.29;.31599;.316;.34199;.342;.36799;.368;.39499;.395;.42099;.421;.44699;.447;.47399;.474;.49999;.5;.68399;.684;.71099;.711;.73699;.737;.76299;.763;.78999;.79;.81599;.816;.84199;.842;.86899;.869;.89499;.895;.92099;.921;.94799;.948;.97399;.974;1" values="0,0,0;0,0,0;-.356,0,0;-.356,0,0;-.713,0,0;-.713,0,0;-1.072,0,0;-1.072,0,0;-1.432,0,0;-1.432,0,0;-1.788,0,0;-1.788,0,0;-2.149,0,0;-2.149,0,0;-2.507,0,0;-2.507,0,0;-2.865,0,0;-2.865,0,0;-3.221,0,0;-3.221,0,0;-3.58,0,0;-3.58,0,0;-3.938,0,0;-3.938,0,0;-4.298,0,0;-4.298,0,0;-4.657,0,0;-4.657,0,0;-5.014,0,0;-5.014,0,0;-5.373,0,0;-5.373,0,0;-5.73,0,0;-5.73,0,0;-6.091,0,0;-6.091,0,0;-6.448,0,0;-6.448,0,0;-6.808,0,0;-6.808,0,0;-6.242,0,0;-6.242,0,0;-5.673,0,0;-5.673,0,0;-5.104,0,0;-5.104,0,0;-4.539,0,0;-4.539,0,0;-3.969,0,0;-3.969,0,0;-3.404,0,0;-3.404,0,0;-2.836,0,0;-2.836,0,0;-2.268,0,0;-2.268,0,0;-1.7,0,0;-1.7,0,0;-1.134,0,0;-1.134,0,0;-.566,0,0;-.566,0,0;0,0,0;0,0,0" calcMode="discrete"/><animateTransform attributeName="transform" additive="sum" type="skewY" repeatCount="indefinite" dur="1.583s" keyTimes="0;1" values="180;180" calcMode="discrete"/><animateTransform attributeName="transform" additive="sum" type="scale" repeatCount="indefinite" dur="1.583s" keyTimes="0;1" values=".349,.349;.349,.349" calcMode="discrete"/><animateTransform attributeName="transform" additive="sum" type="scale" repeatCount="indefinite" dur="1.583s" keyTimes="0;1" values="-1,1;-1,1" calcMode="discrete"/><animateTransform attributeName="transform" additive="sum" type="translate" repeatCount="indefinite" dur="1.583s" keyTimes="0;.02599;.026;.05299;.053;.07899;.079;.10499;.105;.13199;.132;.15799;.158;.18399;.184;.21099;.211;.28999;.29;.31599;.316;.34199;.342;.36799;.368;.39499;.395;.42099;.421;.44699;.447;.47399;.474;.49999;.5;.68399;.684;.71099;.711;.73699;.737;.76299;.763;.78999;.79;.81599;.816;.84199;.842;.86899;.869;.89499;.895;.92099;.921;.94799;.948;.97399;.974;1" values="-271,-304.25;-271,-304.25;-270.9,-304.45;-270.9,-304.45;-270.8,-304.35;-270.8,-304.35;-271.05,-304.25;-271.05,-304.25;-270.8,-304.5;-270.8,-304.5;-270.9,-304.3;-270.9,-304.3;-271.05,-304.4;-271.05,-304.4;-271,-304.45;-271,-304.45;-270.95,-304.3;-270.95,-304.3;-270.95,-304.4;-270.95,-304.4;-271,-304.35;-271,-304.35;-270.95,-304.35;-270.95,-304.35;-271,-304.25;-271,-304.25;-270.95,-304.5;-270.95,-304.5;-271,-304.4;-271,-304.4;-270.9,-304.3;-270.9,-304.3;-270.8,-304.45;-270.8,-304.45;-270.8,-304.7;-270.8,-304.7;-270.7,-304.75;-270.7,-304.75;-270.8,-304.65;-270.8,-304.65;-270.9,-304.7;-270.9,-304.7;-270.8,-304.85;-270.8,-304.85;-270.9,-304.75;-270.9,-304.75;-270.7,-304.8;-270.7,-304.8;-270.85,-304.7;-270.85,-304.7;-270.85,-304.65;-270.85,-304.65;-270.85,-304.7;-270.85,-304.7;-270.7,-304.85;-270.7,-304.85;-270.7,-304.9;-270.7,-304.9;-271,-304.25;-271,-304.25" calcMode="discrete"/><g id="chick_body" transform="translate(63.35 46.8)"><path fill="#EE9300" d="M412.45 266.05q-2.6-7.15-6.5-8.65-3.85-1.5-10.8 1.85-1.05.5-14.85 7.8.2-.35 3.1-5.95 1.7-3.35 2.65-5.55 2.6-6.05.45-9.35t-8.7-3.35q-23.65-.15-43.45 7.55-3.1 1.2-15.7 5.55-7.75-28.85-26.35-51.1-20.25-24.2-47-32.15-1.35-21.05-11.95-42.9-17.05-34.9-50.55-47.15-34.3-12.5-61.5-7.6-17.1 3.05-34.9 14.65-11.75 7.6-23.75 29.05-3.9 6.9-8.45 17.5-.6 1.45-2.75 8.4-2.15 6.45-3.7 7.3-13 7.1-47.75 26.55l37.1 18.05q-.15 3.2-.8 17.5-.5 10.3-.7 16.8-.55 23.3 1.8 42.95 2.75 22.35 9.45 42.05 13.7 40.1 41.05 68.05 26.5 27.05 66.85 43.8 28.85 11.95 67.55 11.85 19.35-.05 32.95-2.5 6.55-1.65 19-4.6 10.9-2.7 18.05-5.1 17.3-5.8 34.45-14.35 62.1-31.1 84.65-97.55 9.3-27.05 1.05-49.4Z"/><path fill="#C47800" d="M402.85 287.55q.25-3.7 0-13.1-36.35 42.4-52.95 61.65-8.4-5.1-12.95-7.45-11.95-6.1-17.75-6v.05l4.2 9.6q4.05 10.5 3.55 14.85-6.6 2.35-15.3 2-.55 0-15.6-1.5.9 1.75 6.95 11.1 4.15 6.35 5.25 11.2-7.6 2.5-18.5 1-6-.95-9-1.4-5.4-.85-9.1-.95l21 17.6-3 1.5q-1.3.65-2.1.75-11.75 1.9-17.6 2.75-10.35 1.6-17.65 2.15-12.9 1-27.65-1.9-11-2.2-26.8-7.5-17.85-6-33.3-17.7-14-10.55-26.75-26.4-12.35-15.4-13.9-17.45-6.9-9.35-11.45-18.95-2.25-4.65-7.25-18.45-4.5-12.35-4.6-12.3-2.8 8.85-3.6 14.55-.9 6.6.25 13.15-12.5-12.95-21.7-34.95-.75 9.65-.5 17 .3 9.45 2.15 18.75-9.7-8.65-18.25-26.55Q55 266.3 48.9 249.5q0 16.85 5.8 41 7.25 30.3 19.95 52.25 11.85 17.6 34.1 36.75 16.75 14.4 27.8 20.8 19.5 11.35 43.1 16.8 20.75 4.85 46.05 5.4 28.5.65 58.25-7.95 28.15-8.1 49.2-20.6 23.7-14.15 40.45-35.05 13.1-16.3 20.3-33.45 7.65-18.15 8.95-37.9ZM32.65 179.75q-13.45.2-20.55.2l34.5 15.2q.4 3.2.35 14.8-.05 9.1 1.55 14.6 6.85-10.3 10.35-17.35 4.8-9.85 6.55-19.75-4.35-3-6.5-4.4-3.85-2.6-6.55-2.8-8-.6-19.7-.5Z"/><path fill="#C47800" d="M352 275.85q-5.1 8.65-7.75 12.9l11.55-6.15q6.55-3.65 10.8-6.95 11.3-8.9 14.4-22.2-14.35 1.95-20.65 9.95-3.7 4.8-8.35 12.45Z"/><path fill="#F3B000" d="M140.05 225.7q-6.5 2.25-11.05 6.3-7.6 6.75-10 17.05-1.7 7.45-1 19.55.75 11.9 6.25 24.6 3.95 9.1 12.3 22.3 5.5 8.55 14.85 18.35 5.45 5.7 16.75 16.65 1 1 2.7 2.1 1 .6 3 1.85-4.4-10.7-6.5-15.95-3.8-9.3-6.1-15.75-4.2-12.05-5.25-15.75-2.45-9.1-2.3-16.9 3.15 3.85 8.95 11.2 5.15 6.45 8.75 10.55 9.8 11.1 22.7 14.25-9.65-14.75-13.9-32.7-3.65-15.5-3.55-34.95l1.35-.65 33.3 30 1.1-.75q-4.4-11.9-6.5-17.95-3.75-10.75-4.1-19.05 3.65 3.1 10.5 9.1 6.05 5.2 10.3 8.6 12.85 10.3 27.6 21.1 2.7 1.95 7 4.55 2.4 1.45 7.2 4.3-3-7.65-4.9-11.25-1.9-3.55-5.05-8.9-4.65-7.85-5.2-8.8l1.55-1.65q4.45 2.5 13.5 7.25 8 4.35 12.9 8.05 11.2 8.45 36.35 30.45-4.95-7.4-11.2-16.4-12.5-18.05-19.05-26-5.8-7.15-15.55-14.6-8.25-6.4-12.1-9.1-6.9-4.9-12.75-7.9-5.7-2.9-14.85-6.1-10.2-3.45-15.25-5.35-14-5.25-30-6.15-13.9-.75-30.5 1.75-7.65 1.15-12.25 2.7ZM299.55 228q-6.65-11.15-13.5-18.75-7.2-7.95-12-8.95-5.15 14 2 23.5 5.1 6.7 13.5 16.55 12.5 14.55 13.9 16.2 2.3 2.75 5.55 6.95 1.85 2.4 5.8 7.5.35-16.8-15.25-43ZM107.6 187.45q4.8 4.05 12.15 5.75 7.1 1.6 14.55.65 17-2.2 22.15-13.9 0-6.7-6.85-11.15-2.15-1.35-4.7-2.35l-2.15-.7q-3.5-1.1-9.1-2-11.15-1.7-21.55-.35-3.45.45-7.75 4.55-4.55 4.25-4.05 7.3.55 3.45 2.8 6.95 1.95 3.1 4.5 5.25ZM239.9 373.6q-12.5-3.25-21.3-3.85-4.4-.3-11 .1-7.3.55-10.95.7 8 6.8 32.6 11.25 24.9 4.5 30.95-.25-4.1-2.95-9.95-5-2.15-.75-10.35-2.95ZM357.4 289.1q-3.4 2.55-4.35 6.3-.9 3.75.9 8.05 1.8-.5 5.8-1.15 3.5-.75 5.1-2.2 5.6-4.9 12.15-12.35 8.3-9.35 11.75-12.8 2.1-2.1 8.9-10.4-14.05 7.05-20.7 11.1-7.7 4.65-19.55 13.45ZM34.45 164.55q-12.4 5.65-17.4 10.45 2.9 2 23.15 1.05t24.5-3.2q-1.3-1.95-1.95-2.9-1.1-1.65-2.1-2.6-1.8-1.75-4.6-4.1-3.15-2.65-4.75-4-4.5-.35-16.85 5.3ZM59.45 143.55q-.65 1.3-.15 3.85l.9 4.35h6.9q6.3-5.25 9.7-17.75 3.35-12.45 1.4-23.45-.4.35-1.25.95-.7.55-1 1-2.8 5.15-8.45 15.45-4.85 8.95-8.05 15.6ZM337.65 266.75q7.05-5.4 13.15-8.5 6.25-3.15 14.6-5.5 3.4-.95 12.25-5.25-6.4-1.6-19.3.35-8.65 1.35-14.9 3.45-7.75 2.55-13.7 6.8-2.85 2.05-3.7 3.4-1.5 2.35-.15 5.35 6.1 4.2 11.75-.1Z"/><path fill="#F7D57B" d="M129.8 240.5q-1.9 2.55-3.2 5.6-4.35 10.25-2.15 22.25 1.4 7.7 7.1 21.3.35.8 1.9 1.8 3 1.9 3.3 2.15l-.6-4.95-.9-8.85q-.5-5.25-.4-8.85.15-4.85 3.2-10.1 2.65-4.4 7.05-5.15 3.9-.6 9.65 1.55 1.95-5.9 2.9-8.75 1.7-5.1 3.75-7.8 2.15-2.85 6.55-6.15 5.15-3.55 7.6-5.55-1-.95-1.1-.95-22.85-2.3-40.1 8.15-2.4 1.45-4.55 4.3ZM229.05 240.6q-6.35-6.5-21.65-9.7-15.4-3.2-22.85.55 4.15 4.4 23.1 8.25 18.85 3.8 21.4.9ZM250.5 252.3q-1.95-2.05-2.85-2.95-1.5-1.55-2.75-2.05-1.1-.5-3.05-.4-2.35.2-3.55.2 1.2 4.35 4.15 5.6 2.95 1.3 8.05-.4ZM298.3 238.75q-1.6-9.3-8.6-19.25-7.1-10.1-12.25-10.15.1 1.1 0 3.3 0 1.9.55 2.9 7.6 14.5 20.3 23.2ZM364.2 290.1q-.2 1-.6 3.05l2.05 1.05 11-9.4q-3.1-1.8-6.2-1.05-3.1.7-5.25 3.6-.65.9-1 2.75ZM385.05 274.4l-6.6 2.8 2.55 4.15 4.95-5.65-.9-1.3ZM35.55 166.65q-6.25 3.15-9.4 4.7 9.1 1.6 16.1-.7 7-2.3 8.45-7.2-2-.7-3-1-1.75-.6-2.65-.2-4.05 1.7-9.5 4.4ZM66.05 134.4q-2.35 5.55-1.35 9.15 4-.8 6.4-6.5 2.45-5.75.85-10.75-3.55 2.5-5.9 8.1ZM335.5 264.15 356 251.9q-7.1-.15-14.6 3-7.7 3.2-8.3 6.9l2.4 2.35Z"/><path fill="#EE9300" d="M72.8 16.2q-1.4-6.05-7.85-10.65Q58.25.75 49.45.1q-9.95-.8-19.4 4.1-12.1 6.3-22.3 19.25-3.2 4.1-5.8 8.3L0 35.2 10.6 31q13.2-4.35 25.9-5.05 6.6-.35 12.4 1.05 2.35.55 8.15 2.65 3.9 1.45 6.05 1.2 3-.3 6.2-3.4 5.05-4.85 3.5-11.25Z" transform="rotate(82.47 38.125 143.021)" id="chick_feather1"/><path fill="#EE9300" d="M52.25 13.7q-.4-8.15-7.15-11.65Q38.75-1.3 29.85.8q-9.3 2.15-16.65 9.3-8.3 8.1-11.25 20.1-3.8 15.4-.2 34.2 1.75 9.45 4.3 15.75 1.3-5.1 4.45-12.5 6.3-14.8 15.4-26.45 4.7-6.05 10.35-10.05 2.3-1.65 8.55-5.05 4.2-2.35 5.7-4.4 2-2.8 1.75-8Z" transform="rotate(82.47 69.241 159.239)" id="chick_feather2"/><g id="chick_eye" fill="#C47800"><path d="M163.6 175.35h-.1l-.2.1-4.75 1.8-.5.15-.2.1-.4.15-.05.05h-.05l-.8.3-.1.05-10 3.35-.35.15-2.4.65h-.05l-.1.05-.8.2-.4.15-.2.05h-.1l-.1.05-1.3.3h-.1l-.1.05-5.65 1.05h-.2l-3.5.35-.2.05h-2.15l-.4.05-.4-.05H127l-.2-.05h-.4l-.35-.05h-.4l-.75-.1h-.2l-.2-.05-.75-.1h-.2l-.2-.05-.75-.1-.15-.05h-.1l-.7-.15h-.1l-.1-.05-1-.25-.4-.05-1.4-.4-.35-.15-.35-.1-2.1-.8-.35-.1-6-3.25-.3-.15-5.7-4.2-.2-.2-.25-.15-.4-.4-.25-.15-.6-.55-1.5-1.25-.45-.45-.2-.1-2.65-2.3v-.05l-.15.05v.05l.9 3.7.1.2 1.55 4 2.75 4.85 1.4 1.95.3.3.5.65.15.15.15.2.6.6q.1.15.6.65l.6.65 3.6 3q.5.4.8.55l.4.3 1.3.8.2.1.1.1.15.05 4.2 1.95 1.6.5.1.05.8.25.1.05 1.5.35 4.8.7 5.3-.05.3-.05h.25l1.05-.1 5.05-1 6-2.15 2.9-1.4.05-.05.3-.15 5.4-3.35.9-.75.35-.2 4.8-4.4.15-.1.65-.7v-.05h.05v-.05l.55-.55 2-2.5 1.35-2.15.15-.2-.05-.15Z"/><path d="m161.5 196.5.15-.15-13.4-14.6-5.75 9.35 19 5.4Z"/></g></g></g><g id="borg_hat" transform="matrix(.342 .033 -.033 .342 162.75 112.45)"><animateTransform attributeName="transform" additive="replace" type="translate" repeatCount="indefinite" dur="1.583s" keyTimes="0;.02599;.026;.05299;.053;.07899;.079;.10499;.105;.13199;.132;.15799;.158;.18399;.184;.21099;.211;.23699;.237;.26299;.263;.28999;.29;.31599;.316;.34199;.342;.36799;.368;.39499;.395;.42099;.421;.44699;.447;.47399;.474;.49999;.5;.68399;.684;.71099;.711;.73699;.737;.76299;.763;.78999;.79;.81599;.816;.84199;.842;.86899;.869;.89499;.895;.92099;.921;.94799;.948;.97399;.974;1" values="207.563,161.412;207.563,161.412;207.305,161.205;207.305,161.205;206.936,160.963;206.936,160.963;206.714,160.72;206.714,160.72;206.306,160.46;206.306,160.46;206.01,160.217;206.01,160.217;205.711,159.956;205.711,159.956;205.359,159.757;205.359,159.757;205.012,159.465;205.012,159.465;204.697,159.255;204.697,159.255;204.287,158.976;204.287,158.976;204.074,158.76;204.074,158.76;203.714,158.453;203.714,158.453;203.35,158.265;203.35,158.265;203.066,158.003;203.066,158.003;202.765,157.703;202.765,157.703;202.41,157.462;202.41,157.462;202.1,157.21;202.1,157.21;201.762,157.021;201.762,157.021;201.398,156.679;201.398,156.679;201.959,157.045;201.959,157.045;202.493,157.465;202.493,157.465;203.006,157.903;203.006,157.903;203.505,158.314;203.505,158.314;203.995,158.698;203.995,158.698;204.57,159.067;204.57,159.067;205.044,159.413;205.044,159.413;205.553,159.923;205.553,159.923;206.06,160.263;206.06,160.263;206.596,160.667;206.596,160.667;207.146,161.061;207.146,161.061;207.563,161.412;207.563,161.412" calcMode="discrete"/><animateTransform attributeName="transform" additive="sum" type="rotate" repeatCount="indefinite" dur="1.583s" keyTimes="0;.02599;.026;.05299;.053;.07899;.079;.10499;.105;.13199;.132;.15799;.158;.18399;.184;.21099;.211;.23699;.237;.26299;.263;.28999;.29;.31599;.316;.34199;.342;.36799;.368;.39499;.395;.42099;.421;.44699;.447;.47399;.474;.49999;.5;.68399;.684;.71099;.711;.73699;.737;.76299;.763;.78999;.79;.81599;.816;.84199;.842;.86899;.869;.89499;.895;.92099;.921;.94799;.948;.97399;.974;1" values="5.506,0,0;5.506,0,0;5.264,0,0;5.264,0,0;5.021,0,0;5.021,0,0;4.781,0,0;4.781,0,0;4.537,0,0;4.537,0,0;4.294,0,0;4.294,0,0;4.054,0,0;4.054,0,0;3.812,0,0;3.812,0,0;3.756,0,0;3.756,0,0;3.514,0,0;3.514,0,0;3.272,0,0;3.272,0,0;3.03,0,0;3.03,0,0;2.788,0,0;2.788,0,0;2.546,0,0;2.546,0,0;2.304,0,0;2.304,0,0;2.248,0,0;2.248,0,0;2.009,0,0;2.009,0,0;1.767,0,0;1.767,0,0;1.523,0,0;1.523,0,0;1.281,0,0;1.281,0,0;1.557,0,0;1.557,0,0;2.017,0,0;2.017,0,0;2.292,0,0;2.292,0,0;2.753,0,0;2.753,0,0;3.027,0,0;3.027,0,0;3.3,0,0;3.3,0,0;3.758,0,0;3.758,0,0;4.036,0,0;4.036,0,0;4.309,0,0;4.309,0,0;4.771,0,0;4.771,0,0;5.044,0,0;5.044,0,0;5.506,0,0;5.506,0,0" calcMode="discrete"/><animateTransform attributeName="transform" additive="sum" type="scale" repeatCount="indefinite" dur="1.583s" keyTimes="0;1" values=".344,.344;.344,.344" calcMode="discrete"/><animateTransform attributeName="transform" additive="sum" type="translate" repeatCount="indefinite" dur="1.583s" keyTimes="0;.02599;.026;.05299;.053;.07899;.079;.10499;.105;.13199;.132;.15799;.158;.18399;.184;.21099;.211;.23699;.237;.26299;.263;.28999;.29;.31599;.316;.34199;.342;.36799;.368;.39499;.395;.42099;.421;.44699;.447;.47399;.474;.49999;.5;.68399;.684;.71099;.711;.73699;.737;.76299;.763;.78999;.79;.81599;.816;.84199;.842;.86899;.869;.89499;.895;.92099;.921;.94799;.948;.97399;.974;1" values="-143.45,-129.3;-143.45,-129.3;-143.55,-129.4;-143.55,-129.4;-143.6,-129.4;-143.6,-129.4;-143.65,-129.4;-143.65,-129.4;-143.45,-129.25;-143.45,-129.25;-143.6,-129.4;-143.6,-129.4;-143.7,-129.2;-143.7,-129.2;-143.55,-129.5;-143.55,-129.5;-143.65,-129.4;-143.65,-129.4;-143.45,-129.25;-143.45,-129.25;-143.55,-129.3;-143.55,-129.3;-143.5,-129.55;-143.5,-129.55;-143.45,-129.25;-143.45,-129.25;-143.55,-129.3;-143.55,-129.3;-143.6,-129.7;-143.6,-129.7;-143.7,-129.6;-143.7,-129.6;-143.55,-129.5;-143.55,-129.5;-143.8,-129.35;-143.8,-129.35;-143.7,-129.7;-143.7,-129.7;-143.65,-129.45;-143.65,-129.45;-143.7,-129.45;-143.7,-129.45;-143.5,-129.5;-143.5,-129.5;-143.85,-129.55;-143.85,-129.55;-143.7,-129.3;-143.7,-129.3;-143.7,-129.5;-143.7,-129.5;-143.65,-129.25;-143.65,-129.25;-143.6,-129.25;-143.6,-129.25;-143.7,-129.7;-143.7,-129.7;-143.75,-129.5;-143.75,-129.5;-143.75,-129.4;-143.75,-129.4;-143.95,-129.5;-143.95,-129.5;-143.45,-129.3;-143.45,-129.3" calcMode="discrete"/><g id="flash0.ai-Assets_Layer-1_.__3CClip-Group.__3E" transform="translate(-6.95 -.5)"><g mask="url(#mask_)" id="Layer10_0_FILL"><path fill="#4D4D4D" d="M220.1 193.05q.75-13.25-5.1-25.05-5.6-11.35-15.95-18.65 18.1-10.95 31.35-21.05 12.65-9.6 28.45-24.2l13.35-14.7-228.45 123 22.65-3.55q6.3-1.85 16.85-4.7 8.9-2.55 15.45-5.2 2.95-1.15 10-3.7 6.75-2.55 11.65-5.1 0 21.2 15.3 35.9 15.3 14.75 36.6 13.95 19.1-.75 32.95-14.3 13.8-13.55 14.9-32.65Z"/><path fill="#B3B3B3" d="M201.75 53.15q12.9 5.7 22.55 10.7-22.25-20.65-47.75-32.8-18.3-8.75-36.25-12.3-9.3-2.4-19.3-1.95-15.7.7-28.55 8.75Q54.8 49 49.8 128.15q9.35.45 14.05 3.5 5.3 3.45 9.4 12.75-.3-25.3 3.1-46.95Q79.2 79.1 83.25 71q13.65-27.35 31.2-33.95 8.6-3.25 20.15-2.75 10.1.35 25.4 3.8 16 3.65 41.75 15.05Z"/><path fill="gray" d="M224.15 181.1q0-12.4-5.75-23.3-5.6-10.5-15.35-17.45 40.7-24.7 69.15-50.95-36.55-40.7-73.9-64.35-58.15-36.8-101.95-19.7Q69.5 15.8 53.7 42.45 40 65.5 35.35 99.3q-3.95 28.8-.95 61.6 2.55 28.5 9.35 51.5 39.2-12.75 80.6-31.25 0 20.65 14.6 35.25 14.65 14.6 35.3 14.6t35.3-14.6q14.6-14.6 14.6-35.3Z"/><path fill="#333" d="M62.4 177.3q-4.4 6.5-5.5 14.55-1.45 10.6 3.1 22.95 3 8 9.05 13.05 6.05 5 14.75 6.7 3.95.8 8.55.8 16.2 0 34.75-9.2 18.8-9.3 32.45-24.35l-10.35-9.4q-11.5 12.65-27.7 20.85-16 8.1-29.1 8.1-3.25 0-5.9-.5-10-2-13.35-10.95-5.65-15.15.85-24.75l-11.6-7.85ZM9.55 108.35Q0 117.05 0 132.9q0 13.2 9 21.75 7.4 7.05 20.45 10.05 8.15 1.85 16.8 1.85l2.25-.05-.75-14q-6.4.3-13.7-1.15-10.4-2.05-15.45-6.9-4.65-4.4-4.65-11.55 0-9.55 4.95-14.1 3.45-3.2 9.3-4.15 2.95-.45 5.2-.3l1.35-13.95q-4.05-.35-9 .5-9.8 1.65-16.2 7.45Z"/><path fill="#333" d="M55.9 166.7q3.15-3.2 3.15-7.65 0-4.5-3.15-7.65-3.2-3.15-7.65-3.15t-7.65 3.15q-3.15 3.15-3.15 7.65 0 4.45 3.15 7.65 3.2 3.15 7.65 3.15t7.65-3.15ZM70.75 189.65q4.5 0 7.65-3.15 3.15-3.2 3.15-7.65t-3.15-7.65q-3.15-3.15-7.65-3.15-4.45 0-7.65 3.15-3.15 3.2-3.15 7.65t3.15 7.65q3.2 3.15 7.65 3.15ZM151.95 81.5q3.15-3.2 3.15-7.65 0-4.5-3.15-7.65-3.2-3.15-7.65-3.15t-7.65 3.15q-3.15 3.15-3.15 7.65 0 4.45 3.15 7.65 3.2 3.15 7.65 3.15t7.65-3.15Z"/><path fill="#4D4D4D" d="M182.45 75.25q-9.8 0-16.75 6.95-6.95 6.95-6.95 16.75t6.95 16.7q6.95 6.95 16.75 6.95t16.75-6.95q6.95-6.9 6.95-16.7 0-9.8-6.95-16.75-6.95-6.95-16.75-6.95M168.55 85q5.75-5.75 13.9-5.75t13.9 5.75q5.8 5.8 5.8 13.95 0 8.15-5.8 13.9-5.75 5.75-13.9 5.75t-13.9-5.75q-5.8-5.75-5.8-13.9t5.8-13.95Z"/><path fill="#333" d="M183.75 145.85q.1-.7-.3-1.3-.45-.55-1.2-.65l-8.25-1.1q-.7-.1-1.25.35-.55.4-.65 1.1l-2.55 7.9q-.15 1-1.1 1.55-2.95.6-5.65 1.8-.4-.25-.6-.55l-6.15-5.55q-.4-.55-1.1-.65-.75-.1-1.3.35l-6.65 5.05q-.55.4-.65 1.15-.1.7.35 1.25l3.75 7.35q.6.85.35 1.85-1.6 2.4-2.7 5.3-.4.15-.85.05l-8.25.4q-.7-.05-1.25.35-.6.45-.7 1.15l-1.1 8.25q-.1.7.35 1.3.45.6 1.15.65l7.85 2.55q1.05.15 1.55 1.05.6 2.9 1.8 5.65-.15.4-.5.65l-5.6 6.1q-.55.45-.65 1.15-.1.7.35 1.3l5.05 6.6q.4.55 1.15.65.7.1 1.3-.3l7.35-3.8q.8-.65 1.8-.3 2.7 1.7 5.3 2.7.1.25.1.8l.35 8.25q-.05.7.35 1.3.45.6 1.15.65l8.25 1.15q.7.1 1.3-.35.6-.45.65-1.15l2.55-7.85q.15-1.05 1.05-1.55 2.7-.55 5.65-1.85.5.3.65.55l6.1 5.55q.45.55 1.15.65.75.1 1.3-.3l6.6-5.05q.55-.45.65-1.15.1-.75-.3-1.3L198 198.2q-.7-.85-.35-1.85 1.8-2.8 2.7-5.3.5-.1.85-.05l8.25-.4q.7.1 1.3-.35.55-.45.65-1.15l1.1-8.25q.1-.7-.35-1.25-.45-.6-1.15-.7l-7.85-2.5q-1.05-.15-1.55-1.1-.55-2.75-1.85-5.65.25-.4.55-.65l5.55-6.1q.6-.4.7-1.1.05-.7-.35-1.3l-5.05-6.65q-.45-.55-1.15-.65-.75-.1-1.3.35l-7.35 3.75q-.8.6-1.85.35-2.5-1.65-5.3-2.7-.1-.55-.05-.85l-.4-8.25Z"/><path fill="#4D4D4D" d="M180.3 89.05q-3.45.45-5.85 3-2.75 2.95-2.65 7 .15 4.1 3.1 6.85 2.9 2.75 7 2.65 4-.15 6.8-3.1 2.4-2.55 2.65-6.1.2-3.45-1.8-6.25L236.5 54q0-.1-2.65-2.35L186.7 90.4q-2.95-1.8-6.4-1.35ZM163.6 143q-.3-.8-1-1.1l-20.95-12.2q-.65-.35-1.5-.1l-33.75 14.15q-1.8-2.95-5.05-4.15-3.3-1.25-6.6-.05-3.8 1.35-5.55 5t-.45 7.5q1.35 3.8 5 5.55 3.7 1.75 7.5.4 3.3-1.15 5.15-4.15 1.8-3 1.3-6.4l33-13.9 19.45 11.5 6.1 17.3q-2.95 1.8-4.15 5.05-1.2 3.3-.05 6.6 1.35 3.8 5 5.55t7.5.45q3.85-1.35 5.6-5 1.75-3.7.4-7.5-1.2-3.3-4.2-5.15-3-1.8-6.4-1.3L163.6 143Z"/><path fill="#4D4D4D" d="M98.3 127q-8.9 0-15.25 6.35-6.3 6.3-6.3 15.25 0 8.9 6.3 15.2 6.35 6.35 15.25 6.35t15.25-6.35q6.3-6.3 6.3-15.2 0-8.95-6.3-15.25Q107.2 127 98.3 127m-12.4 9.15Q91.05 131 98.3 131t12.4 5.15q5.15 5.15 5.15 12.45 0 7.25-5.15 12.4t-12.4 5.15q-7.25 0-12.4-5.15t-5.15-12.4q0-7.3 5.15-12.45ZM129.2 97.95q-3.6-1.95-7.45-.75-3.35 1-5.3 3.95-1.95 2.85-1.6 6.3l-17.55 5.3-20.8-8.9-4.9-17.05q3.05-1.6 4.4-4.8 1.35-3.25.35-6.65-1.15-3.85-4.75-5.8-3.6-1.9-7.45-.7-3.85 1.15-5.8 4.75-1.9 3.55-.75 7.45 1 3.35 3.95 5.3 2.9 1.9 6.3 1.6l5.15 17.8q.25.75.95 1.15l22.2 9.65q.7.4 1.5.15l18.3-5.5q1.65 3.05 4.85 4.4 3.25 1.35 6.6.3 3.9-1.15 5.8-4.7 1.9-3.6.75-7.45-1.15-3.9-4.75-5.8Z"/><path fill="#4D4D4D" d="M232.15 90.85Q215.6 71.45 194.1 54.9q-21-16.2-43.9-27.6 7.3-8.7 13.95-19.6l-3.85-1.4q-6.4 10.45-13.8 19.15Q116.65 11.25 90 8.1q-3 1.5-6.05 3.3l-.05.15q27.7 1.85 59.9 17.05-13.75 15.4-31.1 26.25-13.85 8.6-29.2 13.95-7.2 2.5-14.85 4.3-5.15-24.95-6.3-43.05-2 2.45-3.65 4.75 1.55 17.2 6.05 39.15-13.65 2.85-25 2.85l-.95 4h1.3q11.4 0 25.5-2.9l.85 4 3.9-.85L69.5 77q7.95-1.85 15.15-4.35 16.1-5.55 30.5-14.6 18.15-11.4 32.4-27.65 22.75 11.2 43.65 27.3 21.4 16.45 37.9 35.75 7.7 9 15.05 19.25l3.15-2.45q-6.9-9.65-15.15-19.4Z"/><path fill="#333" d="M244 40.75q4.55-10.35 1.35-17.4-1.6-3.6-5-5.8-4.4-2.9-11.45-3.15-23.8-.9-58.1 25.2-10.9 8.3-21.7 18.45-5.7 5.45-9.45 9.45l10.2 9.55q15.2-16.15 34.35-29.9 27.1-19.4 44.15-18.75 3.4.1 4.3.85.45 1.6-1.65 6.1-2.25 4.75-5.6 8.95l10.9 8.75q4.85-6 7.7-12.3Z"/><path fill="#FFF" d="M189.75 196.55q6.4-6.4 6.4-15.45 0-9.05-6.4-15.45-6.4-6.4-15.45-6.4-9.05 0-15.45 6.4-6.4 6.4-6.4 15.45 0 9.05 6.4 15.45 6.4 6.4 15.45 6.4 9.05 0 15.45-6.4Z"/><path fill="red" d="M164.85 181.1q0 3.95 2.75 6.7 2.75 2.8 6.7 2.8 3.9 0 6.7-2.8 2.75-2.75 2.75-6.7 0-3.9-2.75-6.65-2.8-2.8-6.7-2.8-3.95 0-6.7 2.8-2.75 2.75-2.75 6.65Z"/></g><mask id="mask_"><path fill="#FFF" d="M272.25 0H0v240h272.25V0Z" id="Layer9_0_FILL"/></mask></g></g><g display="none"><use xlink:href="#zzz" transform="matrix(.512 0 0 .512 239.55 130.9)" filter="url(#filter1)"/><animate attributeName="display" repeatCount="indefinite" dur="1.583s" keyTimes="0;.974;1" values="none;inline;inline"/></g><g><use xlink:href="#zzz" transform="matrix(.512 0 0 .512 239.55 130.9)"><animateTransform attributeName="transform" additive="replace" type="translate" repeatCount="indefinite" dur="1.583s" keyTimes="0;.02599;.026;.05299;.053;.07899;.079;.10499;.105;.13199;.132;.15799;.158;.18399;.184;.21099;.211;.23699;.237;.26299;.263;.28999;.29;.31599;.316;.34199;.342;.36799;.368;.39499;.395;.42099;.421;.44699;.447;.47399;.474;.49999;.5;.52599;.526;.55299;.553;.57899;.579;.60499;.605;.63199;.632;.65799;.658;1" values="239.5,130.85;239.5,130.85;240.498,128.2;240.498,128.2;241.548,125.55;241.548,125.55;242.399,122.85;242.399,122.85;243.049,120.15;243.049,120.15;243.549,117.4;243.549,117.4;243.848,114.6;243.848,114.6;243.897,111.8;243.897,111.8;243.748,109;243.748,109;243.298,106.199;243.298,106.199;242.598,103.449;242.598,103.449;241.598,100.8;241.598,100.8;240.299,98.2;240.299,98.2;238.248,94.95;238.248,94.95;235.598,92.1;235.598,92.1;232.498,89.8;232.498,89.8;228.898,88.049;228.898,88.049;225.148,86.45;225.148,86.45;221.548,84;221.548,84;218.098,83.45;218.098,83.45;214.749,81.6;214.749,81.6;211.649,79.4;211.649,79.4;208.748,76.8;208.748,76.8;206.199,73.85;206.199,73.85;203.899,70.7;203.899,70.7;201.899,67.4;201.899,67.4" calcMode="discrete"/><animateTransform attributeName="transform" additive="sum" type="scale" repeatCount="indefinite" dur="1.583s" keyTimes="0;1" values=".512,.512;.512,.512" calcMode="discrete"/><animate attributeName="opacity" repeatCount="indefinite" dur="1.583s" keyTimes="0;.02599;.026;.05299;.053;.07899;.079;.10499;.105;.13199;.132;.15799;.158;.18399;.184;.21099;.211;.23699;.237;.26299;.263;.28999;.29;.31599;.316;.34199;.342;.36799;.368;.39499;.395;.42099;.421;.44699;.447;.47399;.474;.49999;.5;.52599;.526;.55299;.553;.57899;.579;.60499;.605;.63199;.632;.65799;.658;1" values="0;0;.08;.08;.17;.17;.25;.25;.33;.33;.42;.42;.5;.5;.58;.58;.67;.67;.75;.75;.83;.83;.92;.92;1;1;.92;.92;.85;.85;.77;.77;.69;.69;.62;.62;.54;.54;.46;.46;.38;.38;.31;.31;.23;.23;.15;.15;.08;.08;0;0" calcMode="discrete"/></use><animate attributeName="display" repeatCount="indefinite" dur="1.583s" keyTimes="0;.711;1" values="inline;none;none"/></g></g></svg>